<svg id="레이어_1" data-name="레이어 1" xmlns="http://www.w3.org/2000/svg" viewBox="0 0 239 100"><defs><style>.cls-1{fill:none;}.cls-2{fill:#999;}.cls-3{fill:#555;}</style></defs><title>배너_찾기쉬운 생활법령정보</title><rect class="cls-1" width="239" height="100"/><path class="cls-2" d="M10.55,19V16.81h4.9v-2h2.76v2h4.66V19H17.8l5.26,5.54L21.28,26.1l-4.46-4.82-4.39,5L10.6,24.66,15.83,19ZM28.29,29.36h-7l7.18,5L27,36.13l-6.65-4.82-6.65,4.82L12.14,34.4l7.17-5h-7v-2.2H28.29ZM28,26.08H25.41V15H28v4.06h3v2.57H28Z"/><path class="cls-2" d="M42.83,33.18H40.24V18.64h-8V16.31h10.6ZM48.07,15h2.59V35.92H48.07Z"/><path class="cls-2" d="M67.43,29.53H61.67v5.71H59.08V29.53H53.54v-2.3H67.43Zm-7-9.84-4.27,6.22L54,24.56l6.38-9.28,6.34,9.21-2.11,1.35ZM69.09,15h2.59V35.92H69.09Z"/><path class="cls-2" d="M94.12,25.88v2.28H85.91v3.05H83.3V28.16H74.92V25.88Zm-15.05,4v3.44H92.85v2.28H76.46V29.84Zm11.12-10.1a4.83,4.83,0,0,1-.46,2.05,5.45,5.45,0,0,1-1.23,1.69,5.75,5.75,0,0,1-1.8,1.14,5.87,5.87,0,0,1-4.36,0,5.75,5.75,0,0,1-1.8-1.14,5.45,5.45,0,0,1-1.23-1.69,4.89,4.89,0,0,1,0-4.1A5.45,5.45,0,0,1,80.54,16a5.75,5.75,0,0,1,1.8-1.14,5.87,5.87,0,0,1,4.36,0A5.75,5.75,0,0,1,88.5,16a5.45,5.45,0,0,1,1.23,1.69A4.83,4.83,0,0,1,90.19,19.74Zm-2.6,0a2.91,2.91,0,0,0-.9-2.16,3.09,3.09,0,0,0-4.34,0,3,3,0,0,0,0,4.32,3.09,3.09,0,0,0,4.34,0A2.91,2.91,0,0,0,87.59,19.74Z"/><path class="cls-2" d="M113.25,24.4l-2.07,1.15-3.33-6.05-3.31,6.22-2.09-1.16,5.4-9.67Zm5.93,7.1a4.54,4.54,0,0,1-.44,2,5.28,5.28,0,0,1-1.17,1.61,5.74,5.74,0,0,1-1.73,1.1,5.45,5.45,0,0,1-2.09.41,5.53,5.53,0,0,1-2.1-.41,5.79,5.79,0,0,1-1.74-1.1,5.28,5.28,0,0,1-1.17-1.61,4.54,4.54,0,0,1-.44-2,4.62,4.62,0,0,1,.44-2,5.09,5.09,0,0,1,1.17-1.62,5.79,5.79,0,0,1,1.74-1.1,5.35,5.35,0,0,1,2.1-.41,5.27,5.27,0,0,1,2.09.41,5.74,5.74,0,0,1,1.73,1.1,5.09,5.09,0,0,1,1.17,1.62A4.62,4.62,0,0,1,119.18,31.5Zm-2.55,0a2.72,2.72,0,0,0-.85-2,2.82,2.82,0,0,0-2-.84,2.78,2.78,0,0,0-2,.84,2.75,2.75,0,0,0-.84,2,2.7,2.7,0,0,0,.84,2,2.81,2.81,0,0,0,2,.83,2.85,2.85,0,0,0,2-.83A2.68,2.68,0,0,0,116.63,31.48ZM118.86,15h2.5V26.1h-2.5V21.49H116.7v4.32h-2.44V15h2.44v4.05h2.16Z"/><path class="cls-2" d="M136.94,16.28v2h-2.52a3.36,3.36,0,0,1,.88,2.23,3.08,3.08,0,0,1-.37,1.49,4.33,4.33,0,0,1-1,1.23,5.38,5.38,0,0,1-2.07,1V25h5.5v2H123.76V25h5.52v-.86a5.41,5.41,0,0,1-2-1,4.16,4.16,0,0,1-1-1.23,3.09,3.09,0,0,1-.38-1.49,3.31,3.31,0,0,1,.89-2.23h-2.61v-2h5V14.46H132v1.82ZM125.25,28h16.32v4.66H127.84v.91h14v2H125.25V30.8H139v-.86H125.25Zm7.56-7.61a2,2,0,0,0-.65-1.5,2.24,2.24,0,0,0-3.07,0,2.06,2.06,0,0,0,0,3,2.24,2.24,0,0,0,3.07,0A2,2,0,0,0,132.81,20.41Zm8.76,6.79H139V15h2.59v5h2.64v2.24h-2.64Z"/><path class="cls-2" d="M146.15,15.47h2.57v2.71h5.83V15.47h2.52V25.62H146.15Zm1.18,11.21h2.54v2h11.28v-2h2.55v8.83H147.33Zm7.22-6.32h-5.83v3.1h5.83Zm6.6,10.4H149.87v2.59h11.28ZM161.1,15h2.6V26.08h-2.6V21.54h-3V19.26h3Z"/><path class="cls-2" d="M167.44,26.27V19.88h8.47V17.82h-8.47V15.61h11V22H170v2.16h8.71v2.09Zm16.05,5.42a4.4,4.4,0,0,1-.42,1.9A5,5,0,0,1,182,35.12a5.44,5.44,0,0,1-1.66,1.07,5,5,0,0,1-2,.4,5.11,5.11,0,0,1-2-.4,5.49,5.49,0,0,1-1.67-1.07,4.85,4.85,0,0,1-1.11-1.53,4.27,4.27,0,0,1-.43-1.9,4.34,4.34,0,0,1,.43-1.91,4.78,4.78,0,0,1,1.11-1.54,5.49,5.49,0,0,1,1.67-1.07,5.11,5.11,0,0,1,2-.4,5,5,0,0,1,2,.4A5.44,5.44,0,0,1,182,28.24a4.94,4.94,0,0,1,1.11,1.54A4.47,4.47,0,0,1,183.49,31.69Zm-2.51,0a2.56,2.56,0,0,0-.81-1.9,2.62,2.62,0,0,0-1.91-.79,2.71,2.71,0,0,0-2.69,2.69,2.55,2.55,0,0,0,.8,1.88,2.61,2.61,0,0,0,1.89.78,2.65,2.65,0,0,0,1.91-.78A2.52,2.52,0,0,0,181,31.67ZM182.39,15H185V26.58h-2.59V24h-3V21.9h3V19.4h-3V17.27h3Z"/><path class="cls-2" d="M187.89,17.84V15.61h12v2.23h-5.12l5.33,6.51-1.82,1.49L194,20.51l-4.25,5.69-1.9-1.54,5.31-6.82Zm16.6,13.64a4.61,4.61,0,0,1-.43,2,5.62,5.62,0,0,1-1.15,1.62,5.79,5.79,0,0,1-1.74,1.1,5.5,5.5,0,0,1-2.1.41,5.74,5.74,0,0,1-3.86-1.51,5.43,5.43,0,0,1-1.15-1.62,4.62,4.62,0,0,1-.44-2,4.71,4.71,0,0,1,.44-2,5.35,5.35,0,0,1,1.15-1.63,5.74,5.74,0,0,1,3.86-1.51,5.5,5.5,0,0,1,2.1.41,5.79,5.79,0,0,1,1.74,1.1,5.53,5.53,0,0,1,1.15,1.63A4.7,4.7,0,0,1,204.49,31.48Zm-2.54,0a2.78,2.78,0,0,0-.86-2,2.85,2.85,0,0,0-2-.85,2.9,2.9,0,0,0-2.88,2.88,2.72,2.72,0,0,0,.85,2,2.79,2.79,0,0,0,2,.84,2.84,2.84,0,0,0,2-.84A2.73,2.73,0,0,0,202,31.45Zm1.73-5.35V21.56h-3.89V19.33h3.89V15h2.59V26.1Z"/><path class="cls-2" d="M224.34,19.12V15.9h2.57v12h-6.77v4.23h8.31v2.3h-19.2v-2.3h8.28V27.85h-6.75v-12h2.57v3.22Zm0,6.45v-4.2h-11v4.2Z"/><path class="cls-3" d="M10.55,69V66.81h4.9v-2h2.76v2h4.66V69H17.8l5.26,5.54L21.28,76.1l-4.46-4.82-4.39,5L10.6,74.66,15.83,69ZM28.29,79.36h-7l7.18,5L27,86.13l-6.65-4.82-6.65,4.82L12.14,84.4l7.17-5h-7v-2.2H28.29ZM28,76.08H25.41V65H28v4.06h3v2.57H28Z"/><path class="cls-3" d="M42.83,83.18H40.24V68.64h-8V66.31h10.6ZM48.07,65h2.59V85.92H48.07Z"/><path class="cls-3" d="M67.43,79.53H61.67v5.71H59.08V79.53H53.54v-2.3H67.43Zm-7-9.84-4.27,6.22L54,74.56l6.38-9.28,6.34,9.21-2.11,1.35ZM69.09,65h2.59V85.92H69.09Z"/><path class="cls-3" d="M94.12,75.88v2.28H85.91v3H83.3v-3H74.92V75.88Zm-15.05,4v3.44H92.85v2.28H76.46V79.84Zm11.12-10.1a4.83,4.83,0,0,1-.46,2.05,5.45,5.45,0,0,1-1.23,1.69,5.75,5.75,0,0,1-1.8,1.14,5.87,5.87,0,0,1-4.36,0,5.75,5.75,0,0,1-1.8-1.14,5.45,5.45,0,0,1-1.23-1.69,4.89,4.89,0,0,1,0-4.1A5.45,5.45,0,0,1,80.54,66a5.75,5.75,0,0,1,1.8-1.14,5.87,5.87,0,0,1,4.36,0A5.75,5.75,0,0,1,88.5,66a5.45,5.45,0,0,1,1.23,1.69A4.83,4.83,0,0,1,90.19,69.74Zm-2.6,0a2.91,2.91,0,0,0-.9-2.16,3.09,3.09,0,0,0-4.34,0,3,3,0,0,0,0,4.32,3.09,3.09,0,0,0,4.34,0A2.91,2.91,0,0,0,87.59,69.74Z"/><path class="cls-3" d="M113.25,74.4l-2.07,1.15-3.33-6-3.31,6.22-2.09-1.16,5.4-9.67Zm5.93,7.1a4.54,4.54,0,0,1-.44,2,5.28,5.28,0,0,1-1.17,1.61,5.74,5.74,0,0,1-1.73,1.1,5.45,5.45,0,0,1-2.09.41,5.53,5.53,0,0,1-2.1-.41,5.79,5.79,0,0,1-1.74-1.1,5.28,5.28,0,0,1-1.17-1.61,4.54,4.54,0,0,1-.44-2,4.62,4.62,0,0,1,.44-2,5.09,5.09,0,0,1,1.17-1.62,5.79,5.79,0,0,1,1.74-1.1,5.35,5.35,0,0,1,2.1-.41,5.27,5.27,0,0,1,2.09.41,5.74,5.74,0,0,1,1.73,1.1,5.09,5.09,0,0,1,1.17,1.62A4.62,4.62,0,0,1,119.18,81.5Zm-2.55,0a2.72,2.72,0,0,0-.85-2,2.82,2.82,0,0,0-2-.84,2.78,2.78,0,0,0-2,.84,2.75,2.75,0,0,0-.84,2,2.7,2.7,0,0,0,.84,2,2.81,2.81,0,0,0,2,.83,2.85,2.85,0,0,0,2-.83A2.68,2.68,0,0,0,116.63,81.48ZM118.86,65h2.5V76.1h-2.5V71.49H116.7v4.32h-2.44V65h2.44v4h2.16Z"/><path class="cls-3" d="M136.94,66.28v2h-2.52a3.36,3.36,0,0,1,.88,2.23,3.08,3.08,0,0,1-.37,1.49,4.33,4.33,0,0,1-1,1.23,5.38,5.38,0,0,1-2.07,1V75h5.5v2H123.76V75h5.52v-.86a5.41,5.41,0,0,1-2-1,4.16,4.16,0,0,1-1-1.23,3.09,3.09,0,0,1-.38-1.49,3.31,3.31,0,0,1,.89-2.23h-2.61v-2h5V64.46H132v1.82ZM125.25,78h16.32v4.66H127.84v.91h14v2H125.25V80.8H139v-.86H125.25Zm7.56-7.61a2,2,0,0,0-.65-1.5,2.24,2.24,0,0,0-3.07,0,2.06,2.06,0,0,0,0,3,2.24,2.24,0,0,0,3.07,0A2,2,0,0,0,132.81,70.41Zm8.76,6.79H139V65h2.59v5h2.64v2.24h-2.64Z"/><path class="cls-3" d="M146.15,65.47h2.57v2.71h5.83V65.47h2.52V75.62H146.15Zm1.18,11.21h2.54v2h11.28v-2h2.55v8.83H147.33Zm7.22-6.32h-5.83v3.1h5.83Zm6.6,10.4H149.87v2.59h11.28ZM161.1,65h2.6V76.08h-2.6V71.54h-3V69.26h3Z"/><path class="cls-3" d="M167.44,76.27V69.88h8.47V67.82h-8.47V65.61h11V72H170v2.16h8.71v2.09Zm16.05,5.42a4.4,4.4,0,0,1-.42,1.9A5,5,0,0,1,182,85.12a5.44,5.44,0,0,1-1.66,1.07,5,5,0,0,1-2,.4,5.11,5.11,0,0,1-2-.4,5.49,5.49,0,0,1-1.67-1.07,4.85,4.85,0,0,1-1.11-1.53,4.27,4.27,0,0,1-.43-1.9,4.34,4.34,0,0,1,.43-1.91,4.78,4.78,0,0,1,1.11-1.54,5.49,5.49,0,0,1,1.67-1.07,5.11,5.11,0,0,1,2-.4,5,5,0,0,1,2,.4A5.44,5.44,0,0,1,182,78.24a4.94,4.94,0,0,1,1.11,1.54A4.47,4.47,0,0,1,183.49,81.69Zm-2.51,0a2.56,2.56,0,0,0-.81-1.9,2.62,2.62,0,0,0-1.91-.79,2.71,2.71,0,0,0-2.69,2.69,2.55,2.55,0,0,0,.8,1.88,2.61,2.61,0,0,0,1.89.78,2.65,2.65,0,0,0,1.91-.78A2.52,2.52,0,0,0,181,81.67ZM182.39,65H185V76.58h-2.59V74h-3V71.9h3V69.4h-3V67.27h3Z"/><path class="cls-3" d="M187.89,67.84V65.61h12v2.23h-5.12l5.33,6.51-1.82,1.49L194,70.51l-4.25,5.69-1.9-1.54,5.31-6.82Zm16.6,13.64a4.61,4.61,0,0,1-.43,2,5.62,5.62,0,0,1-1.15,1.62,5.79,5.79,0,0,1-1.74,1.1,5.5,5.5,0,0,1-2.1.41,5.74,5.74,0,0,1-3.86-1.51,5.43,5.43,0,0,1-1.15-1.62,4.62,4.62,0,0,1-.44-2,4.71,4.71,0,0,1,.44-2,5.35,5.35,0,0,1,1.15-1.63,5.74,5.74,0,0,1,3.86-1.51,5.5,5.5,0,0,1,2.1.41,5.79,5.79,0,0,1,1.74,1.1,5.53,5.53,0,0,1,1.15,1.63A4.7,4.7,0,0,1,204.49,81.48Zm-2.54,0a2.78,2.78,0,0,0-.86-2,2.85,2.85,0,0,0-2-.85,2.9,2.9,0,0,0-2.88,2.88,2.72,2.72,0,0,0,.85,2,2.79,2.79,0,0,0,2,.84,2.84,2.84,0,0,0,2-.84A2.73,2.73,0,0,0,202,81.45Zm1.73-5.35V71.56h-3.89V69.33h3.89V65h2.59V76.1Z"/><path class="cls-3" d="M224.34,69.12V65.9h2.57V77.85h-6.77v4.23h8.31v2.3h-19.2v-2.3h8.28V77.85h-6.75V65.9h2.57v3.22Zm0,6.45v-4.2h-11v4.2Z"/></svg>