<svg id="레이어_1" data-name="레이어 1" xmlns="http://www.w3.org/2000/svg" viewBox="0 0 147 100"><defs><style>.cls-1{fill:none;}.cls-2{fill:#999;}.cls-3{fill:#555;}</style></defs><title>배너_국민참여예산</title><rect class="cls-1" width="147" height="100"/><path class="cls-2" d="M18.59,28.67V25.62H10.31V23.34h19.2v2.28h-8.3v3.05H28V36H25.38V31H11.6V28.67Zm9.33-13.23v6.22H25.33V17.72H11.8V15.44Z"/><path class="cls-2" d="M32.37,26.36V15.61H43.12V26.36ZM33,35.51v-7h2.6V33.2H50.1v2.31Zm7.61-17.64H34.93v6.26h5.64ZM47.32,28.4V15h2.59V28.4Z"/><path class="cls-2" d="M52.38,19V16.81h4.9v-2H60v2h4.65V19H59.63l5.25,5.54L63.11,26.1l-4.47-4.82-4.39,5-1.82-1.61L57.66,19Zm1.32,8.16H69.83v8.35H53.7Zm13.56,2.2h-11v3.92h11Zm2.57-3.28H67.24V15h2.59v4.06h3v2.57h-3Z"/><path class="cls-2" d="M86.53,23.77a5.74,5.74,0,0,1-.51,2.4,6.4,6.4,0,0,1-3.41,3.3,6.55,6.55,0,0,1-5,0,6.56,6.56,0,0,1-2-1.33,6.72,6.72,0,0,1-1.38-2,5.9,5.9,0,0,1,0-4.8,6.72,6.72,0,0,1,1.38-2,6.56,6.56,0,0,1,2-1.33,6.55,6.55,0,0,1,5,0A6.4,6.4,0,0,1,86,21.37,5.74,5.74,0,0,1,86.53,23.77Zm-2.57,0a3.88,3.88,0,0,0-.3-1.51,3.94,3.94,0,0,0-.8-1.25,3.87,3.87,0,0,0-2.74-1.13A3.83,3.83,0,0,0,77.39,21a4,4,0,0,0-.81,1.25,4,4,0,0,0,0,3,4,4,0,0,0,.81,1.25,3.83,3.83,0,0,0,2.73,1.13,3.87,3.87,0,0,0,2.74-1.13,3.94,3.94,0,0,0,.8-1.25A3.88,3.88,0,0,0,84,23.77ZM89.89,15h2.59V35.92H89.89v-7.3H86.72V26.39h3.17V21.16H86.72V18.92h3.17Z"/><path class="cls-2" d="M106.52,23.77A5.47,5.47,0,0,1,106,26a6.09,6.09,0,0,1-3.25,3.14,6.19,6.19,0,0,1-4.73,0A6.09,6.09,0,0,1,94.81,26a5.61,5.61,0,0,1,0-4.54,6.09,6.09,0,0,1,3.25-3.14,6.19,6.19,0,0,1,4.73,0A6.09,6.09,0,0,1,106,21.5,5.51,5.51,0,0,1,106.52,23.77Zm-2.56,0a3.71,3.71,0,0,0-.28-1.39,3.39,3.39,0,0,0-.76-1.15,3.57,3.57,0,0,0-1.13-.76,3.47,3.47,0,0,0-1.36-.27,3.52,3.52,0,0,0-1.37.27,3.68,3.68,0,0,0-1.13.76,3.55,3.55,0,0,0-.76,1.15,3.7,3.7,0,0,0-.27,1.39,3.66,3.66,0,0,0,.27,1.39,3.59,3.59,0,0,0,.76,1.16,3.49,3.49,0,0,0,1.13.75,3.36,3.36,0,0,0,1.37.28,3.31,3.31,0,0,0,1.36-.28,3.38,3.38,0,0,0,1.13-.75,3.44,3.44,0,0,0,.76-1.16A3.67,3.67,0,0,0,104,23.77ZM108.32,15h2.43V35.8h-2.43V28.52H106v-2.2h2.35V21.23H106V19h2.35Zm4,0h2.49V35.92h-2.49Z"/><path class="cls-2" d="M122.44,14.89l6.43,10.71-2.12,1.27-4.31-7.44L118.16,27,116,25.76Zm-2.28,13.63V33.2h14.06v2.31H117.56v-7Zm13.53-.12H131.1V15h2.59v4.92h3V22.5h-3Z"/><path class="cls-3" d="M18.59,78.67v-3H10.31V73.34h19.2v2.28h-8.3v3H28V86H25.38V81H11.6V78.67Zm9.33-13.23v6.22H25.33V67.72H11.8V65.44Z"/><path class="cls-3" d="M32.37,76.36V65.61H43.12V76.36ZM33,85.51v-7h2.6V83.2H50.1v2.31Zm7.61-17.64H34.93v6.26h5.64ZM47.32,78.4V65h2.59V78.4Z"/><path class="cls-3" d="M52.38,69V66.81h4.9v-2H60v2h4.65V69H59.63l5.25,5.54L63.11,76.1l-4.47-4.82-4.39,5-1.82-1.61L57.66,69Zm1.32,8.16H69.83v8.35H53.7Zm13.56,2.2h-11v3.92h11Zm2.57-3.28H67.24V65h2.59v4.06h3v2.57h-3Z"/><path class="cls-3" d="M86.53,73.77a5.74,5.74,0,0,1-.51,2.4,6.4,6.4,0,0,1-3.41,3.3,6.55,6.55,0,0,1-5,0,6.56,6.56,0,0,1-2-1.33,6.72,6.72,0,0,1-1.38-2,5.9,5.9,0,0,1,0-4.8,6.72,6.72,0,0,1,1.38-2,6.56,6.56,0,0,1,2-1.33,6.55,6.55,0,0,1,5,0A6.4,6.4,0,0,1,86,71.37,5.74,5.74,0,0,1,86.53,73.77Zm-2.57,0a3.88,3.88,0,0,0-.3-1.51,3.94,3.94,0,0,0-.8-1.25,3.87,3.87,0,0,0-2.74-1.13A3.83,3.83,0,0,0,77.39,71a4,4,0,0,0-.81,1.25,4,4,0,0,0,0,3,4,4,0,0,0,.81,1.25,3.83,3.83,0,0,0,2.73,1.13,3.87,3.87,0,0,0,2.74-1.13,3.94,3.94,0,0,0,.8-1.25A3.88,3.88,0,0,0,84,73.77ZM89.89,65h2.59V85.92H89.89v-7.3H86.72V76.39h3.17V71.16H86.72V68.92h3.17Z"/><path class="cls-3" d="M106.52,73.77A5.47,5.47,0,0,1,106,76a6.09,6.09,0,0,1-3.25,3.14,6.19,6.19,0,0,1-4.73,0A6.09,6.09,0,0,1,94.81,76a5.61,5.61,0,0,1,0-4.54,6.09,6.09,0,0,1,3.25-3.14,6.19,6.19,0,0,1,4.73,0A6.09,6.09,0,0,1,106,71.5,5.51,5.51,0,0,1,106.52,73.77Zm-2.56,0a3.71,3.71,0,0,0-.28-1.39,3.39,3.39,0,0,0-.76-1.15,3.57,3.57,0,0,0-1.13-.76,3.47,3.47,0,0,0-1.36-.27,3.52,3.52,0,0,0-1.37.27,3.68,3.68,0,0,0-1.13.76,3.55,3.55,0,0,0-.76,1.15,3.7,3.7,0,0,0-.27,1.39,3.66,3.66,0,0,0,.27,1.39,3.59,3.59,0,0,0,.76,1.16,3.49,3.49,0,0,0,1.13.75,3.36,3.36,0,0,0,1.37.28,3.31,3.31,0,0,0,1.36-.28,3.38,3.38,0,0,0,1.13-.75,3.44,3.44,0,0,0,.76-1.16A3.67,3.67,0,0,0,104,73.77ZM108.32,65h2.43V85.8h-2.43V78.52H106v-2.2h2.35V71.23H106V69h2.35Zm4,0h2.49V85.92h-2.49Z"/><path class="cls-3" d="M122.44,64.89l6.43,10.71-2.12,1.27-4.31-7.44L118.16,77,116,75.76Zm-2.28,13.63V83.2h14.06v2.31H117.56v-7Zm13.53-.12H131.1V65h2.59v4.92h3V72.5h-3Z"/></svg>