<svg id="레이어_1" data-name="레이어 1" xmlns="http://www.w3.org/2000/svg" viewBox="0 0 126 100"><defs><style>.cls-1{fill:none;}.cls-2{fill:#999;}.cls-3{fill:#555;}</style></defs><title>배너_국가정보원</title><rect class="cls-1" width="126" height="100"/><path class="cls-2" d="M19.56,28.67V25.62H11.28V23.34h19.2v2.28h-8.3v3.05h6.76V36H26.35V31H12.58V28.67ZM28.9,15.44v6.22H26.31V17.72H12.77V15.44Z"/><path class="cls-2" d="M42.34,33.18h-2.6V18.64h-7.8V16.31h10.4Zm7.17-10.06h3v2.6h-3v10.2H46.92V15h2.59Z"/><path class="cls-2" d="M53.78,17.84V15.61h12v2.23H60.67L66,24.35l-1.82,1.49L59.9,20.51,55.66,26.2l-1.9-1.54,5.3-6.82ZM70.39,31.48a4.61,4.61,0,0,1-.43,2,5.62,5.62,0,0,1-1.15,1.62,5.79,5.79,0,0,1-1.74,1.1,5.61,5.61,0,0,1-4.21,0A5.18,5.18,0,0,1,60,33.46a4.61,4.61,0,0,1-.43-2,4.7,4.7,0,0,1,.43-2,5.53,5.53,0,0,1,1.15-1.63,5.64,5.64,0,0,1,1.76-1.1,5.61,5.61,0,0,1,4.21,0,5.79,5.79,0,0,1,1.74,1.1A5.53,5.53,0,0,1,70,29.48,4.7,4.7,0,0,1,70.39,31.48Zm-2.54,0a2.76,2.76,0,0,0-.87-2,2.82,2.82,0,0,0-2-.85,2.92,2.92,0,0,0-2.88,2.88,2.73,2.73,0,0,0,.86,2,2.76,2.76,0,0,0,2,.84,2.81,2.81,0,0,0,2-.84A2.7,2.7,0,0,0,67.85,31.45Zm1.73-5.35V21.56H65.69V19.33h3.89V15h2.59V26.1Z"/><path class="cls-2" d="M90.24,19.12V15.9h2.57v12H86v4.23h8.3v2.3H75.14v-2.3h8.28V27.85H76.68v-12h2.57v3.22Zm0,6.45v-4.2h-11v4.2Z"/><path class="cls-2" d="M110.23,27.56h-5.54v3.17H102.1V27.56H96.34V25.28h13.89Zm-12.48,8v-6h2.59V33.3h14.38v2.26Zm10.63-16a4.28,4.28,0,0,1-.42,1.88A5.5,5.5,0,0,1,106.85,23a5.78,5.78,0,0,1-1.67,1,5.61,5.61,0,0,1-4.06,0,5.73,5.73,0,0,1-1.66-1,5.34,5.34,0,0,1-1.12-1.55,4.28,4.28,0,0,1-.42-1.88,4.32,4.32,0,0,1,.42-1.89,5.34,5.34,0,0,1,1.12-1.55,5.73,5.73,0,0,1,1.66-1,5.61,5.61,0,0,1,4.06,0,5.78,5.78,0,0,1,1.67,1A5.5,5.5,0,0,1,108,17.71,4.32,4.32,0,0,1,108.38,19.6Zm-2.52,0a2.5,2.5,0,0,0-.8-1.88,2.78,2.78,0,0,0-3.82,0,2.6,2.6,0,0,0,0,3.75,2.75,2.75,0,0,0,3.82,0A2.47,2.47,0,0,0,105.86,19.6Zm6-4.59h2.59V31h-2.59v-7.7H109V21h2.91Z"/><path class="cls-3" d="M19.56,78.67v-3H11.28V73.34h19.2v2.28h-8.3v3h6.76V86H26.35V81H12.58V78.67ZM28.9,65.44v6.22H26.31V67.72H12.77V65.44Z"/><path class="cls-3" d="M42.34,83.18h-2.6V68.64h-7.8V66.31h10.4Zm7.17-10.06h3v2.6h-3v10.2H46.92V65h2.59Z"/><path class="cls-3" d="M53.78,67.84V65.61h12v2.23H60.67L66,74.35l-1.82,1.49L59.9,70.51,55.66,76.2l-1.9-1.54,5.3-6.82ZM70.39,81.48a4.61,4.61,0,0,1-.43,2,5.62,5.62,0,0,1-1.15,1.62,5.79,5.79,0,0,1-1.74,1.1,5.61,5.61,0,0,1-4.21,0A5.18,5.18,0,0,1,60,83.46a4.61,4.61,0,0,1-.43-2,4.7,4.7,0,0,1,.43-2,5.53,5.53,0,0,1,1.15-1.63,5.64,5.64,0,0,1,1.76-1.1,5.61,5.61,0,0,1,4.21,0,5.79,5.79,0,0,1,1.74,1.1A5.53,5.53,0,0,1,70,79.48,4.7,4.7,0,0,1,70.39,81.48Zm-2.54,0a2.76,2.76,0,0,0-.87-2,2.82,2.82,0,0,0-2-.85,2.92,2.92,0,0,0-2.88,2.88,2.73,2.73,0,0,0,.86,2,2.76,2.76,0,0,0,2,.84,2.81,2.81,0,0,0,2-.84A2.7,2.7,0,0,0,67.85,81.45Zm1.73-5.35V71.56H65.69V69.33h3.89V65h2.59V76.1Z"/><path class="cls-3" d="M90.24,69.12V65.9h2.57V77.85H86v4.23h8.3v2.3H75.14v-2.3h8.28V77.85H76.68V65.9h2.57v3.22Zm0,6.45v-4.2h-11v4.2Z"/><path class="cls-3" d="M110.23,77.56h-5.54v3.17H102.1V77.56H96.34V75.28h13.89Zm-12.48,8v-6h2.59V83.3h14.38v2.26Zm10.63-16a4.28,4.28,0,0,1-.42,1.88A5.5,5.5,0,0,1,106.85,73a5.78,5.78,0,0,1-1.67,1,5.61,5.61,0,0,1-4.06,0,5.73,5.73,0,0,1-1.66-1,5.34,5.34,0,0,1-1.12-1.55,4.28,4.28,0,0,1-.42-1.88,4.32,4.32,0,0,1,.42-1.89,5.34,5.34,0,0,1,1.12-1.55,5.73,5.73,0,0,1,1.66-1,5.61,5.61,0,0,1,4.06,0,5.78,5.78,0,0,1,1.67,1A5.5,5.5,0,0,1,108,67.71,4.32,4.32,0,0,1,108.38,69.6Zm-2.52,0a2.5,2.5,0,0,0-.8-1.88,2.78,2.78,0,0,0-3.82,0,2.6,2.6,0,0,0,0,3.75,2.75,2.75,0,0,0,3.82,0A2.47,2.47,0,0,0,105.86,69.6Zm6-4.59h2.59V81h-2.59v-7.7H109V71h2.91Z"/></svg>