<svg id="레이어_1" data-name="레이어 1" xmlns="http://www.w3.org/2000/svg" viewBox="0 0 78.11 100"><defs><style>.cls-1{fill:#999;}.cls-2{fill:#555;}.cls-3{fill:none;}</style></defs><path class="cls-1" d="M13.5,28.54a3.28,3.28,0,0,0,1,1.77,4.23,4.23,0,0,0,3,1,5.58,5.58,0,0,0,3.65-1.44l.79,2a6.62,6.62,0,0,1-4.51,1.66,6.9,6.9,0,0,1-4.84-1.69,5.72,5.72,0,0,1-1.86-4.43A6.16,6.16,0,0,1,12.38,23a5.68,5.68,0,0,1,4.32-1.74A5.67,5.67,0,0,1,21,23a5.9,5.9,0,0,1,1.67,4.29,6.61,6.61,0,0,1-.12,1.3Zm0-2.09H20a3.14,3.14,0,0,0-1-2.1,3.08,3.08,0,0,0-2.32-1,3.1,3.1,0,0,0-2.38,1A3.7,3.7,0,0,0,13.46,26.45Z"/><path class="cls-1" d="M36.71,16.32v2.23H24.52V16.32h4.77V14.57h2.77v1.75Zm-1.2,7.11a4.07,4.07,0,0,1-.38,1.72,4.46,4.46,0,0,1-1,1.42,5.35,5.35,0,0,1-1.53,1,4.83,4.83,0,0,1-1.87.36,5,5,0,0,1-1.89-.36,5.46,5.46,0,0,1-1.55-1,4.59,4.59,0,0,1-1-1.42,4.11,4.11,0,0,1,0-3.45,4.59,4.59,0,0,1,1-1.42,5.46,5.46,0,0,1,1.55-1A5,5,0,0,1,30.69,19a4.83,4.83,0,0,1,1.87.36,5.35,5.35,0,0,1,1.53,1,4.46,4.46,0,0,1,1,1.42A4.08,4.08,0,0,1,35.51,23.43Zm-9.43,5.35h16.7v6.93H40.19V31.08H26.08Zm7-5.38a2.15,2.15,0,0,0-.7-1.61,2.37,2.37,0,0,0-3.3,0A2.25,2.25,0,0,0,29,25a2.37,2.37,0,0,0,3.3,0A2.14,2.14,0,0,0,33,23.4Zm7.15-2.21H36.83V19.06h3.36V15h2.59V27.6H40.19V25.42H36.83V23.28h3.36Z"/><path class="cls-1" d="M52.26,14.88l6.6,10.66-2.11,1.32-4.49-7.49L47.82,27l-2.16-1.32ZM47.37,35.5v-7H50v4.68H64.5V35.5Zm14.35-7.11V15h2.59V28.39Z"/><path class="cls-2" d="M13.51,78.59a3.31,3.31,0,0,0,1,1.78,4.21,4.21,0,0,0,3,1A5.54,5.54,0,0,0,21.14,80l.79,2a6.62,6.62,0,0,1-4.51,1.65,6.89,6.89,0,0,1-4.83-1.69,5.7,5.7,0,0,1-1.86-4.43A6.22,6.22,0,0,1,12.38,73a5.71,5.71,0,0,1,4.32-1.74A5.73,5.73,0,0,1,21,73a6,6,0,0,1,1.67,4.3,6.58,6.58,0,0,1-.12,1.29Zm0-2.09H20a3.18,3.18,0,0,0-1-2.1,3.09,3.09,0,0,0-2.33-.94,3,3,0,0,0-2.37,1A3.57,3.57,0,0,0,13.46,76.5Z"/><path class="cls-2" d="M36.72,66.38v2.23H24.53V66.38H29.3V64.62h2.76v1.76Zm-1.2,7.1a4,4,0,0,1-.39,1.73,4.5,4.5,0,0,1-1,1.41,5.49,5.49,0,0,1-1.53,1,5.09,5.09,0,0,1-3.76,0,5.46,5.46,0,0,1-1.55-1,4.66,4.66,0,0,1-1-1.41,4.13,4.13,0,0,1,0-3.46,4.66,4.66,0,0,1,1-1.41,5.46,5.46,0,0,1,1.55-1,5.09,5.09,0,0,1,3.76,0,5.49,5.49,0,0,1,1.53,1,4.5,4.5,0,0,1,1,1.41A4,4,0,0,1,35.52,73.48Zm-9.43,5.35h16.7v6.94H40.2V81.14H26.09Zm7-5.37a2.17,2.17,0,0,0-.7-1.61,2.29,2.29,0,0,0-1.66-.67,2.25,2.25,0,0,0-1.64.67,2.15,2.15,0,0,0-.68,1.61,2.13,2.13,0,0,0,.68,1.6,2.26,2.26,0,0,0,1.64.68,2.3,2.3,0,0,0,1.66-.68A2.15,2.15,0,0,0,33.05,73.46Zm7.15-2.21H36.84V69.11H40.2v-4h2.59v12.6H40.2V75.47H36.84V73.34H40.2Z"/><path class="cls-2" d="M52.27,64.94l6.6,10.65-2.11,1.32-4.49-7.49-4.44,7.66-2.16-1.32Zm-4.9,20.61v-7H50v4.68H64.51v2.3Zm14.36-7.1V65.06h2.59V78.45Z"/><rect class="cls-3" width="78.11" height="100"/></svg>